<svg xmlns="http://www.w3.org/2000/svg" width="114.632" height="104.103" viewBox="0 0 114.632 104.103"><defs><style>.a{fill:#121212;stroke:#121212;stroke-width:5px;}.b{fill:#f3c800;}</style></defs><g transform="translate(-2102.5 -1716.5)"><path class="a" d="M103.821,6.253H8.811C1.5,6.253,1.5,12.763,1.5,15.214V71.3c0,2.45,0,8.959,7.311,8.959H40a28.706,28.706,0,0,0,12.4,19.071,36.606,36.606,0,0,0,20.67,6.021,45.148,45.148,0,0,0,10.909-1.363c.011,0,.018-.01.028-.014a1.142,1.142,0,0,0,.359-.171.951.951,0,0,0,.069-.067,1.109,1.109,0,0,0,.2-.222,1.227,1.227,0,0,0,.069-.126.9.9,0,0,0,.067-.121c.011-.032.006-.066.015-.1a1.163,1.163,0,0,0,.032-.227,1.058,1.058,0,0,0-.01-.224c-.006-.034,0-.068,0-.1s-.035-.066-.047-.1a1.2,1.2,0,0,0-.1-.207,1.022,1.022,0,0,0-.124-.168,1.048,1.048,0,0,0-.162-.146,1.19,1.19,0,0,0-.19-.114,1.076,1.076,0,0,0-.1-.059c-.17-.061-16.641-6.113-18.263-21.562h38.006c7.311,0,7.311-6.509,7.311-8.959V15.214C111.132,12.763,111.132,6.253,103.821,6.253Zm0,71.746H64.584c-.01,0-.019.006-.028.006s-.02,0-.031,0a.975.975,0,0,0-.19.05,1.072,1.072,0,0,0-.217.057.919.919,0,0,0-.172.117,1.089,1.089,0,0,0-.177.134,1.022,1.022,0,0,0-.118.177,1.253,1.253,0,0,0-.113.186,1.173,1.173,0,0,0-.046.229,1.1,1.1,0,0,0-.036.184c0,.01.006.019.006.028s0,.02,0,.031c.705,13.255,11.195,20.437,16.64,23.29-9.735,1.651-19.217-.113-26.431-5.02A26.466,26.466,0,0,1,42.079,78.979a1.155,1.155,0,0,0-.047-.137,1.1,1.1,0,0,0-.077-.22.964.964,0,0,0-.112-.165,1.02,1.02,0,0,0-.155-.172,1.158,1.158,0,0,0-.162-.11,1.1,1.1,0,0,0-.207-.1,1.134,1.134,0,0,0-.214-.043A1.054,1.054,0,0,0,40.958,78H8.811C4.15,78,3.76,74.693,3.76,71.306V15.214c0-3.387.39-6.694,5.051-6.694h95.009c4.661,0,5.051,3.307,5.051,6.694V71.3C108.872,74.692,108.482,78,103.821,78Z" transform="translate(2103.5 1712.747)"/><g transform="translate(2119.52 1744.455)"><path class="b" d="M38.522,30.557c-2.289-.974-5.079-.427-7.775,1.46-2.7-1.889-5.492-2.433-7.781-1.459a6.774,6.774,0,0,0-3.863,5.9c-.481,5.619,3.606,11.8,10.934,16.528.014.009.03.012.044.021a1.259,1.259,0,0,0,.222.1.985.985,0,0,0,.1.039,1.346,1.346,0,0,0,.323.046l.016,0h0l.016,0a1.275,1.275,0,0,0,.323-.046c.035-.009.067-.027.1-.039a1.217,1.217,0,0,0,.226-.1c.013-.008.027-.01.042-.02,7.325-4.73,11.411-10.909,10.929-16.53A6.773,6.773,0,0,0,38.522,30.557Z" transform="translate(-19.066 -30.083)"/><path class="b" d="M38.522,30.557c-2.289-.974-5.079-.427-7.775,1.46-2.7-1.889-5.492-2.433-7.781-1.459a6.774,6.774,0,0,0-3.863,5.9c-.481,5.619,3.606,11.8,10.934,16.528.014.009.03.012.044.021a1.259,1.259,0,0,0,.222.1.985.985,0,0,0,.1.039,1.346,1.346,0,0,0,.323.046l.016,0h0l.016,0a1.275,1.275,0,0,0,.323-.046c.035-.009.067-.027.1-.039a1.217,1.217,0,0,0,.226-.1c.013-.008.027-.01.042-.02,7.325-4.73,11.411-10.909,10.929-16.53A6.773,6.773,0,0,0,38.522,30.557Z" transform="translate(9.785 -30.083)"/><path class="b" d="M38.522,30.557c-2.289-.974-5.079-.427-7.775,1.46-2.7-1.889-5.492-2.433-7.781-1.459a6.774,6.774,0,0,0-3.863,5.9c-.481,5.619,3.606,11.8,10.934,16.528.014.009.03.012.044.021a1.259,1.259,0,0,0,.222.1.985.985,0,0,0,.1.039,1.346,1.346,0,0,0,.323.046l.016,0h0l.016,0a1.275,1.275,0,0,0,.323-.046c.035-.009.067-.027.1-.039a1.217,1.217,0,0,0,.226-.1c.013-.008.027-.01.042-.02,7.325-4.73,11.411-10.909,10.929-16.53A6.773,6.773,0,0,0,38.522,30.557Z" transform="translate(38.636 -30.083)"/></g></g></svg>