<svg xmlns="http://www.w3.org/2000/svg" width="41.088" height="40.985" viewBox="0 0 41.088 40.985"><defs><style>.a{fill:#f3c800;}</style></defs><path class="a" d="M25.73,19.016,19.448,14.3V32.835l6.282-4.716,6.076-4.552Zm0,0L19.448,14.3V32.835l6.282-4.716,6.076-4.552Zm0,0L19.448,14.3V32.835l6.282-4.716,6.076-4.552ZM21.508,7.235V3.075A20.49,20.49,0,0,0,10.551,7.627l2.925,2.945A16.355,16.355,0,0,1,21.508,7.235Zm-10.936,6.24L7.627,10.551A20.49,20.49,0,0,0,3.075,21.508h4.16A16.355,16.355,0,0,1,10.572,13.476ZM7.235,25.627H3.075A20.49,20.49,0,0,0,7.627,36.584l2.945-2.945A16.2,16.2,0,0,1,7.235,25.627Zm3.316,13.881A20.557,20.557,0,0,0,21.508,44.06V39.9a16.355,16.355,0,0,1-8.032-3.336l-2.925,2.945ZM44.163,23.567A20.626,20.626,0,0,1,25.73,44.06V39.9a16.474,16.474,0,0,0,0-32.664V3.075A20.626,20.626,0,0,1,44.163,23.567Z" transform="translate(-3.075 -3.075)"/></svg>