<svg xmlns="http://www.w3.org/2000/svg" width="79.898" height="60" viewBox="0 0 79.898 60"><defs><style>.a{fill:#f3c800;}.b{fill:#121212;}</style></defs><g transform="translate(-481.694 -1739.512)"><path class="a" d="M161.516,123.362a14.406,14.406,0,1,1,0-20.373A14.327,14.327,0,0,1,161.516,123.362ZM157.1,109.715l-4.8-4.8-.1-.1a1.932,1.932,0,0,0-.769-.384h-.288a1.707,1.707,0,0,0-.961.384l-4.8,4.8a1.646,1.646,0,0,0,0,2.114,1.393,1.393,0,0,0,2.018,0l2.306-2.306v10.955a1.441,1.441,0,1,0,2.883,0V109.427l2.306,2.306a1.393,1.393,0,0,0,2.018,0A1.273,1.273,0,0,0,157.1,109.715Z" transform="translate(395.824 1671.898)"/><path class="b" d="M47.553,64.758V44.307a2.2,2.2,0,0,1,3.488-1.745L64.9,52.837a2.181,2.181,0,0,1,0,3.489L51.042,66.5A2.169,2.169,0,0,1,47.553,64.758ZM68.387,76.874H37.67A14.166,14.166,0,0,1,23.522,62.723V46.44A14.166,14.166,0,0,1,37.67,32.289H73.329A14.166,14.166,0,0,1,87.476,46.44V56.714a17.657,17.657,0,0,1,3.876,1.066V46.44A18.053,18.053,0,0,0,73.329,28.412H37.67A18.053,18.053,0,0,0,19.646,46.44V62.723A18.053,18.053,0,0,0,37.67,80.75H69.743A18.411,18.411,0,0,1,68.387,76.874Z" transform="translate(462.048 1711.1)"/></g></svg>